<svg width="32" height="32" viewBox="0 0 32 32" fill="none" xmlns="http://www.w3.org/2000/svg">
<path d="M10.0667 23.5V5.83334H16.7C18.1444 5.83334 19.35 6.26667 20.3167 7.13334C21.2833 8 21.7667 9.12222 21.7667 10.5C21.7667 11.3667 21.55 12.1278 21.1167 12.7833C20.6833 13.4389 20.0555 13.9444 19.2333 14.3V14.4333C20.2111 14.7 20.9778 15.2056 21.5333 15.95C22.0889 16.6944 22.3667 17.5889 22.3667 18.6333C22.3667 20.1222 21.8667 21.3056 20.8667 22.1833C19.8667 23.0611 18.5667 23.5 16.9667 23.5H10.0667ZM12.1333 13.5667H16.5667C17.5222 13.5667 18.2889 13.3 18.8667 12.7667C19.4444 12.2333 19.7333 11.5111 19.7333 10.6C19.7333 9.71111 19.4444 8.99445 18.8667 8.45C18.2889 7.90556 17.5222 7.63334 16.5667 7.63334H12.1333V13.5667ZM12.1333 21.6667H16.8333C17.8778 21.6667 18.7111 21.3944 19.3333 20.85C19.9555 20.3056 20.2667 19.5111 20.2667 18.4667C20.2667 17.4667 19.9555 16.6944 19.3333 16.15C18.7111 15.6056 17.8778 15.3333 16.8333 15.3333H12.1333V21.6667Z" fill="black" fill-opacity="0.87"/>
</svg>
