<svg width="32" height="32" viewBox="0 0 32 32" fill="none" xmlns="http://www.w3.org/2000/svg">
<path d="M10.4883 8.66602L4.92383 23.6406H4L9.87598 8H10.5957L10.4883 8.66602ZM15.752 23.6406L10.1982 8.66602L10.0908 8H10.7998L16.6865 23.6406H15.752ZM14.377 18.2803V19.0859H6.35254V18.2803H14.377Z" fill="black"/>
<path d="M23.5602 15.9922H18.8766L18.8551 15.208H22.776C23.6497 15.208 24.3873 15.0898 24.9889 14.8535C25.5904 14.6172 26.0452 14.2627 26.3531 13.79C26.6611 13.3102 26.815 12.7122 26.815 11.9961C26.815 11.2799 26.6575 10.6855 26.3424 10.2129C26.0273 9.74023 25.5546 9.38574 24.9244 9.14941C24.3014 8.91309 23.5208 8.79492 22.5826 8.79492H19.1451V23.6406H18.275V8H22.5826C23.3775 8 24.0901 8.07878 24.7203 8.23633C25.3505 8.39388 25.8841 8.64095 26.3209 8.97754C26.7649 9.30697 27.1051 9.72591 27.3414 10.2344C27.5777 10.7428 27.6959 11.3444 27.6959 12.0391C27.6959 12.6836 27.567 13.2637 27.3092 13.7793C27.0514 14.2949 26.679 14.7174 26.192 15.0469C25.7122 15.3691 25.1249 15.5661 24.4303 15.6377L23.5602 15.9922ZM23.4527 23.6406H18.6939L19.0699 22.8457H23.4527C24.2906 22.8457 25.0068 22.7061 25.6012 22.4268C26.2027 22.1403 26.6646 21.7357 26.9869 21.2129C27.3163 20.6829 27.4811 20.0492 27.4811 19.3115C27.4811 18.7171 27.3378 18.1693 27.0514 17.668C26.7649 17.1595 26.3316 16.7549 25.7516 16.4541C25.1715 16.1462 24.441 15.9922 23.5602 15.9922H20.9391L20.9605 15.208H24.7311L24.8492 15.4873C25.5296 15.5661 26.1311 15.7845 26.6539 16.1426C27.1839 16.5007 27.5992 16.9554 27.9 17.5068C28.2008 18.0511 28.3512 18.6455 28.3512 19.29C28.3512 20.2282 28.1435 21.0195 27.7281 21.6641C27.3128 22.3086 26.7363 22.7992 25.9986 23.1357C25.2682 23.4723 24.4195 23.6406 23.4527 23.6406Z" fill="black"/>
</svg>
