<svg width="32" height="32" viewBox="0 0 32 32" fill="none" xmlns="http://www.w3.org/2000/svg">
<path d="M14.6333 17.3667V14.6333H17.3667V17.3667H14.6333ZM11.9 20.0667V17.3667H14.6333V20.0667H11.9ZM17.3667 20.0667V17.3667H20.0667V20.0667H17.3667ZM20.0667 17.3667V14.6333H22.8V17.3667H20.0667ZM9.2 17.3667V14.6333H11.9V17.3667H9.2ZM7.53334 26.2667C7.02223 26.2667 6.59445 26.0944 6.25 25.75C5.90556 25.4056 5.73334 24.9778 5.73334 24.4667V7.53334C5.73334 7.02223 5.90556 6.59445 6.25 6.25C6.59445 5.90556 7.02223 5.73334 7.53334 5.73334H24.4667C24.9778 5.73334 25.4056 5.90556 25.75 6.25C26.0944 6.59445 26.2667 7.02223 26.2667 7.53334V24.4667C26.2667 24.9778 26.0944 25.4056 25.75 25.75C25.4056 26.0944 24.9778 26.2667 24.4667 26.2667H7.53334ZM9.2 25.5333H11.9V22.8H9.2V25.5333ZM14.6333 25.5333H17.3667V22.8H14.6333V25.5333ZM20.0667 25.5333H22.8V22.8H20.0667V25.5333ZM6.46667 22.8H9.2V20.0667H11.9V22.8H14.6333V20.0667H17.3667V22.8H20.1V20.0667H22.8V22.8H25.5333V20.0667H22.8V17.3667H25.5333V7.53334C25.5333 7.26667 25.4222 7.02223 25.2 6.8C24.9778 6.57778 24.7333 6.46667 24.4667 6.46667H7.53334C7.26667 6.46667 7.02223 6.57778 6.8 6.8C6.57778 7.02223 6.46667 7.26667 6.46667 7.53334V17.3667H9.2V20.0667H6.46667V22.8ZM7.53334 25.5333H6.46667C6.46667 25.5333 6.46667 25.4278 6.46667 25.2167C6.46667 25.0056 6.46667 24.7556 6.46667 24.4667V7.53334C6.46667 7.26667 6.46667 7.02223 6.46667 6.8C6.46667 6.57778 6.46667 6.46667 6.46667 6.46667H7.53334C7.26667 6.46667 7.02223 6.57778 6.8 6.8C6.57778 7.02223 6.46667 7.26667 6.46667 7.53334V24.4667C6.46667 24.7333 6.57778 24.9778 6.8 25.2C7.02223 25.4222 7.26667 25.5333 7.53334 25.5333Z" fill="black" fill-opacity="0.87"/>
</svg>
