<svg width="32" height="32" viewBox="0 0 32 32" fill="none" xmlns="http://www.w3.org/2000/svg">
<path d="M10.5667 21.8333H21.7333L18.3333 17.3333L14.9 21.5667L12.7333 19.0333L10.5667 21.8333ZM7.53334 26.2667C7.02223 26.2667 6.59445 26.0944 6.25 25.75C5.90556 25.4056 5.73334 24.9778 5.73334 24.4667V7.53334C5.73334 7.02223 5.90556 6.59445 6.25 6.25C6.59445 5.90556 7.02223 5.73334 7.53334 5.73334H24.4667C24.9778 5.73334 25.4056 5.90556 25.75 6.25C26.0944 6.59445 26.2667 7.02223 26.2667 7.53334V24.4667C26.2667 24.9778 26.0944 25.4056 25.75 25.75C25.4056 26.0944 24.9778 26.2667 24.4667 26.2667H7.53334ZM7.53334 25.5333H24.4667C24.7333 25.5333 24.9778 25.4222 25.2 25.2C25.4222 24.9778 25.5333 24.7333 25.5333 24.4667V7.53334C25.5333 7.26667 25.4222 7.02223 25.2 6.8C24.9778 6.57778 24.7333 6.46667 24.4667 6.46667H7.53334C7.26667 6.46667 7.02223 6.57778 6.8 6.8C6.57778 7.02223 6.46667 7.26667 6.46667 7.53334V24.4667C6.46667 24.7333 6.57778 24.9778 6.8 25.2C7.02223 25.4222 7.26667 25.5333 7.53334 25.5333ZM6.46667 6.46667C6.46667 6.46667 6.46667 6.56667 6.46667 6.76667C6.46667 6.96667 6.46667 7.22223 6.46667 7.53334V24.4667C6.46667 24.7778 6.46667 25.0333 6.46667 25.2333C6.46667 25.4333 6.46667 25.5333 6.46667 25.5333C6.46667 25.5333 6.46667 25.4333 6.46667 25.2333C6.46667 25.0333 6.46667 24.7778 6.46667 24.4667V7.53334C6.46667 7.22223 6.46667 6.96667 6.46667 6.76667C6.46667 6.56667 6.46667 6.46667 6.46667 6.46667Z" fill="black" fill-opacity="0.87"/>
</svg>
