<svg width="24" height="24" viewBox="0 0 24 24" fill="none" xmlns="http://www.w3.org/2000/svg">
<path d="M3.5 20.5V19.65H4.35V20.5H3.5ZM11.575 20.5V12.425H3.5V11.575H11.575V3.5H12.425V11.575H20.5V12.425H12.425V20.5H11.575ZM3.5 16.45V15.6H4.35V16.45H3.5ZM3.5 8.375V7.525H4.35V8.375H3.5ZM3.5 4.35V3.5H4.35V4.35H3.5ZM7.55 20.5V19.65H8.4V20.5H7.55ZM7.55 4.35V3.5H8.4V4.35H7.55ZM15.625 20.5V19.65H16.475V20.5H15.625ZM15.625 4.35V3.5H16.475V4.35H15.625ZM19.65 20.5V19.65H20.5V20.5H19.65ZM19.65 16.45V15.6H20.5V16.45H19.65ZM19.65 8.375V7.525H20.5V8.375H19.65ZM19.65 4.35V3.5H20.5V4.35H19.65Z" fill="black" fill-opacity="0.87"/>
</svg>
