<svg width="24" height="24" viewBox="0 0 24 24" fill="none" xmlns="http://www.w3.org/2000/svg">
<path d="M19.15 19.7V17.85H19.7V19.7H19.15ZM19.15 15.8V13.775H19.7V15.8H19.15ZM4.29999 13.025V11H4.84999V13.025H4.29999ZM4.29999 17.1V15.075H4.84999V17.1H4.29999ZM4.29999 8.925V6.9H4.84999V8.925H4.29999ZM4.29999 4.85V4.3H6.14999V4.85H4.29999ZM8.19999 4.85V4.3H10.225V4.85H8.19999ZM15.075 19.7V19.15H17.1V19.7H15.075ZM11 19.7V19.15H13.025V19.7H11ZM6.89999 19.7V19.15H8.92499V19.7H6.89999ZM4.29999 19.7V19.15H4.84999V19.7H4.29999ZM19.15 11.7V9.075C19.15 7.89167 18.7417 6.89167 17.925 6.075C17.1083 5.25834 16.1083 4.85 14.925 4.85H12.3V4.3H14.925C16.2583 4.3 17.3875 4.75417 18.3125 5.6625C19.2375 6.57084 19.7 7.70834 19.7 9.075V11.7H19.15Z" fill="black" fill-opacity="0.87"/>
</svg>
