<svg width="24" height="24" viewBox="0 0 24 24" fill="none" xmlns="http://www.w3.org/2000/svg">
<path d="M19.375 20.5V18.875H20.5V20.5H19.375ZM19.375 16.725V14.675H20.5V16.725H19.375ZM3.5 13.05V10.975H4.625V13.05H3.5ZM3.5 17.225V15.175H4.625V17.225H3.5ZM3.5 8.825V6.775H4.625V8.825H3.5ZM3.5 4.625V3.5H5.125V4.625H3.5ZM7.275 4.625V3.5H9.325V4.625H7.275ZM15.175 20.5V19.375H17.25V20.5H15.175ZM10.975 20.5V19.375H13.05V20.5H10.975ZM6.775 20.5V19.375H8.825V20.5H6.775ZM3.5 20.5V19.375H4.625V20.5H3.5ZM19.375 12.525V8.575C19.375 7.45833 18.9958 6.52083 18.2375 5.7625C17.4792 5.00417 16.5417 4.625 15.425 4.625H11.475V3.5H15.425C16.8417 3.5 18.0417 3.9875 19.025 4.9625C20.0083 5.9375 20.5 7.14167 20.5 8.575V12.525H19.375Z" fill="black" fill-opacity="0.87"/>
</svg>
